<?xml version="1.0" encoding="iso-8859-1"?>
<!-- Uploaded to: SVG Repo, www.svgrepo.com, Generator: SVG Repo Mixer Tools -->
<svg version="1.1" id="Layer_1" xmlns="http://www.w3.org/2000/svg" xmlns:xlink="http://www.w3.org/1999/xlink" 
	 viewBox="0 0 448 448" xml:space="preserve">
<path style="fill:#D9CDC1;" d="M352,200v124H96V200c3.2-2.4,5.6-5.6,8-8.8c8.8,12.8,23.2,21.6,40,21.6s31.2-8.8,40-21.6
	c8.8,12.8,23.2,21.6,40,21.6s31.2-8.8,40-21.6c8.8,12.8,23.2,21.6,40,21.6s31.2-8.8,40-21.6C346.4,193.6,348.8,196.8,352,200z
	 M336,284v-16h-96v16H336z M336,252v-16h-24v16H336z M296,252v-16h-96v16H296z M224,284v-16h-24v16H224z M176,260
	c0-17.6-14.4-32-32-32s-32,14.4-32,32s14.4,32,32,32S176,277.6,176,260z"/>
<path style="fill:#FFF8EF;" d="M304,228c-16.8,0-31.2-8.8-40-21.6c-8.8,12.8-23.2,21.6-40,21.6s-31.2-8.8-40-21.6
	c-8.8,12.8-23.2,21.6-40,21.6c17.6,0,32,14.4,32,32s-14.4,32-32,32s-32-14.4-32-32s14.4-32,32-32c-16.8,0-31.2-8.8-40-21.6
	c-2.4,3.2-4.8,6.4-8,8.8V324h256V216c-3.2-2.4-5.6-5.6-8-8.8C335.2,219.2,320.8,228,304,228z M200,236h96v16h-96V236z M224,284h-24
	v-16h24V284z M336,284h-96v-16h96V284z M336,252h-24v-16h24V252z"/>
<circle style="fill:#EE5656;" cx="144" cy="260" r="16"/>
<path style="fill:#CC9966;" d="M384,364H280v16c0,4-4,8-8,8h-96c-4,0-8-4-8-8v-16H64H16.8c3.2,18.4,16,32,31.2,32h224h128
	c15.2,0,28-13.6,31.2-32H384z"/>
<path style="fill:#E4C6A1;" d="M376,211.2V348H272h-96H72V211.2c2.4-0.8,5.6-0.8,8-2.4V332c0,4,3.2,8,8,8h272c4,0,8-4,8-8V208.8
	C370.4,210.4,373.6,211.2,376,211.2z"/>
<polygon style="fill:#FF6600;" points="416,52 416,60 344,60 264,60 184,60 104,60 32,60 32,52 "/>
<path style="fill:#1D9AAE;" d="M336,76v88c0,17.6-14.4,32-32,32s-32-14.4-32-32V76H336z"/>
<g>
	<path style="fill:#FF7D00;" d="M416,76v88c0,17.6-14.4,32-32,32s-32-14.4-32-32V76H416z"/>
	<path style="fill:#FF7D00;" d="M256,76v88c0,17.6-14.4,32-32,32s-32-14.4-32-32V76H256z"/>
	<path style="fill:#FF7D00;" d="M96,76v88c0,17.6-14.4,32-32,32s-32-14.4-32-32V76H96z"/>
</g>
<g>
	<path style="fill:#42210B;" d="M440,348c4,0,8,4,8,8c0,31.2-21.6,56-48,56H48c-26.4,0-48-24.8-48-56c0-4,3.2-8,8-8h48V211.2
		c-22.4-4-40-23.2-40-47.2V68V44c0-4.8,3.2-8,8-8h400c4,0,8,3.2,8,8v24v96c0,24-17.6,43.2-40,47.2V348H440z M431.2,364H384H280v16
		c0,4-4,8-8,8h-96c-4,0-8-4-8-8v-16H64H16.8c3.2,18.4,16,32,31.2,32h224h128C415.2,396,428,382.4,431.2,364z M416,164V76h-64v88
		c0,17.6,14.4,32,32,32S416,181.6,416,164z M416,60v-8H32v8h72h80h80h80H416z M376,348V211.2c-2.4-0.8-5.6-0.8-8-2.4V332
		c0,4-4,8-8,8H88c-4.8,0-8-4-8-8V208.8c-2.4,0.8-5.6,1.6-8,2.4V348h104h96H376z M352,324V200c-3.2-2.4-5.6-5.6-8-8.8
		c-8.8,12.8-23.2,21.6-40,21.6s-31.2-8.8-40-21.6c-8.8,12.8-23.2,21.6-40,21.6s-31.2-8.8-40-21.6c-8.8,12.8-23.2,21.6-40,21.6
		s-31.2-8.8-40-21.6c-2.4,3.2-4.8,6.4-8,8.8v124H352z M336,164V76h-64v88c0,17.6,14.4,32,32,32S336,181.6,336,164z M264,372v-8h-80
		v8H264z M256,164V76h-64v88c0,17.6,14.4,32,32,32S256,181.6,256,164z M176,164V76h-64v88c0,17.6,14.4,32,32,32S176,181.6,176,164z
		 M96,164V76H32v88c0,17.6,14.4,32,32,32S96,181.6,96,164z"/>
	<rect x="240" y="268" style="fill:#42210B;" width="96" height="16"/>
	<rect x="312" y="236" style="fill:#42210B;" width="24" height="16"/>
	<rect x="200" y="236" style="fill:#42210B;" width="96" height="16"/>
	<rect x="200" y="268" style="fill:#42210B;" width="24" height="16"/>
</g>
<path style="fill:#1D9AAE;" d="M176,76v88c0,17.6-14.4,32-32,32s-32-14.4-32-32V76H176z"/>
<path style="fill:#2FB4C2;" d="M336,76v70.4c0,14.4-14.4,25.6-32,25.6s-32-11.2-32-25.6V76H336z"/>
<g>
	<path style="fill:#FF9900;" d="M416,76v70.4c0,14.4-14.4,25.6-32,25.6s-32-11.2-32-25.6V76H416z"/>
	<path style="fill:#FF9900;" d="M256,76v70.4c0,14.4-14.4,25.6-32,25.6s-32-11.2-32-25.6V76H256z"/>
	<path style="fill:#FF9900;" d="M96,76v70.4c0,14.4-14.4,25.6-32,25.6s-32-11.2-32-25.6V76H96z"/>
</g>
<path style="fill:#2FB4C2;" d="M176,76v70.4c0,14.4-14.4,25.6-32,25.6s-32-11.2-32-25.6V76H176z"/>
<path style="fill:#42210B;" d="M144,228c17.6,0,32,14.4,32,32s-14.4,32-32,32s-32-14.4-32-32S126.4,228,144,228z M160,260
	c0-8.8-7.2-16-16-16s-16,7.2-16,16s7.2,16,16,16S160,268.8,160,260z"/>
</svg>